HIERARCHY
ROOT Hips
{
 OFFSET 0.000000 0.000000 0.000000
 CHANNELS 6 Xposition Yposition Zposition Yrotation Xrotation Zrotation
 JOINT Chest
 {
  OFFSET 0.000000 9.585900 0.002600
  CHANNELS 3 Yrotation Xrotation Zrotation
  JOINT Chest2
  {
   OFFSET 0.000000 9.601200 -0.005300
   CHANNELS 3 Yrotation Xrotation Zrotation
   JOINT Chest3
   {
    OFFSET 0.000000 9.561800 0.000000
    CHANNELS 3 Yrotation Xrotation Zrotation
    JOINT Chest4
    {
     OFFSET 0.000000 9.552100 0.000000
     CHANNELS 3 Yrotation Xrotation Zrotation
     JOINT Neck
     {
      OFFSET 0.000000 14.453000 0.000000
      CHANNELS 3 Yrotation Xrotation Zrotation
      JOINT Head
      {
       OFFSET 0.000000 8.936500 -0.011300
       CHANNELS 3 Yrotation Xrotation Zrotation
       End Site
       {
        OFFSET 0.000000 17.073600 -0.006000
       }
      }
     }
     JOINT RightCollar
     {
      OFFSET -2.921100 9.558500 0.000000
      CHANNELS 3 Yrotation Xrotation Zrotation
      JOINT RightShoulder
      {
       OFFSET -13.519700 0.000000 0.000000
       CHANNELS 3 Yrotation Xrotation Zrotation
       JOINT RightElbow
       {
        OFFSET 0.000000 -29.696600 0.000000
        CHANNELS 3 Yrotation Xrotation Zrotation
        JOINT RightWrist
        {
         OFFSET 0.000000 -24.004700 0.000000
         CHANNELS 3 Yrotation Xrotation Zrotation
         End Site
         {
          OFFSET 0.000000 -17.728500 0.000000
         }
        }
       }
      }
     }
     JOINT LeftCollar
     {
      OFFSET 2.921100 9.558500 0.000000
      CHANNELS 3 Yrotation Xrotation Zrotation
      JOINT LeftShoulder
      {
       OFFSET 13.519700 0.000000 0.000000
       CHANNELS 3 Yrotation Xrotation Zrotation
       JOINT LeftElbow
       {
        OFFSET 0.000000 -29.696600 0.000000
        CHANNELS 3 Yrotation Xrotation Zrotation
        JOINT LeftWrist
        {
         OFFSET 0.000000 -24.004700 0.000000
         CHANNELS 3 Yrotation Xrotation Zrotation
         End Site
         {
          OFFSET 0.000000 -17.728500 0.000000
         }
        }
       }
      }
     }
    }
   }
  }
 }
 JOINT RightHip
 {
  OFFSET -7.771700 -0.012900 -0.001300
  CHANNELS 3 Yrotation Xrotation Zrotation
  JOINT RightKnee
  {
   OFFSET 0.000000 -40.869800 0.001200
   CHANNELS 3 Yrotation Xrotation Zrotation
   JOINT RightAnkle
   {
    OFFSET 0.000000 -39.717900 0.002100
    CHANNELS 3 Yrotation Xrotation Zrotation
    JOINT RightToe
    {
     OFFSET 0.000000 -4.965400 11.033500
     CHANNELS 3 Yrotation Xrotation Zrotation
     End Site
     {
      OFFSET 0.000000 -1.423100 5.872300
     }
    }
   }
  }
 }
 JOINT LeftHip
 {
  OFFSET 7.771700 -0.012900 -0.001300
  CHANNELS 3 Yrotation Xrotation Zrotation
  JOINT LeftKnee
  {
   OFFSET 0.000000 -40.869800 0.001200
   CHANNELS 3 Yrotation Xrotation Zrotation
   JOINT LeftAnkle
   {
    OFFSET 0.000000 -39.717900 0.002100
    CHANNELS 3 Yrotation Xrotation Zrotation
    JOINT LeftToe
    {
     OFFSET 0.000000 -4.965400 11.033500
     CHANNELS 3 Yrotation Xrotation Zrotation
     End Site
     {
      OFFSET 0.000000 -1.423100 5.872300
     }
    }
   }
  }
 }
}
MOTION
Frames: 11
Frame Time: 0.008333
0.000000 85.388000 0.000000 0.000000 -5.767877 0.000000 0.000000 11.653817 0.000000 0.000000 -5.885947 0.000000 0.000000 -0.000000 0.000000 0.000000 -0.000000 0.000000 0.000000 12.528835 0.000000 0.000000 0.711642 0.000000 0.000000 -0.000000 0.000000 0.000000 0.000000 -90.000000 0.000000 -2.309062 0.000000 0.000000 2.309062 0.000000 0.000000 -0.000000 0.000000 0.000000 -0.000000 90.000000 0.000000 -2.309062 0.000000 0.000000 2.309062 0.000000 0.000000 8.520406 0.000000 0.000000 1.905762 0.000000 -0.000000 -4.658285 0.000000 0.000000 -0.000000 0.000000 0.000000 8.520406 0.000000 0.000000 1.905762 0.000000 -0.000000 -4.658285 0.000000 0.000000 -0.000000 0.000000
-65.841401 48.555419 15.448841 172.877570 -27.789820 -0.402886 -0.173347 11.727617 1.475323 -0.253531 6.742779 1.290381 -0.269581 8.438498 1.611772 -0.248266 6.729886 1.286936 -0.463179 18.858779 -2.354753 -0.158432 -0.716776 -4.142761 6.380555 5.818320 -4.242714 1.373060 -22.514462 -9.498527 41.018002 -55.145403 -24.499600 11.686865 5.368468 -36.194124 -1.188424 1.695016 -4.481180 3.328446 -25.191932 -1.353566 -67.994036 -36.249606 39.741090 -10.612938 12.446738 34.873722 21.349688 -55.475894 -27.517885 -102.678186 66.930182 -94.055351 1.966300 -2.226147 2.796960 0.115028 -0.989121 0.065564 -3.290767 -56.686136 13.434319 97.085923 82.074494 95.303423 -6.655335 -8.801255 -1.272108 0.347048 0.762570 0.163601
-65.843731 48.552603 15.446769 172.888598 -27.836072 -0.435393 -0.182887 11.754913 1.496428 -0.277525 6.719716 1.282898 -0.315532 8.425188 1.609069 -0.271157 6.739524 1.289151 -0.419534 18.906772 -2.360806 -0.141851 -0.695590 -4.152966 6.497843 5.753146 -4.226290 1.393559 -22.490436 -9.546566 40.900732 -55.076878 -24.371255 11.680162 5.368538 -36.193455 -1.121483 1.717838 -4.505181 3.310168 -25.233926 -1.336098 -67.941970 -36.194199 39.661949 -10.605064 12.448736 34.882491 21.289292 -55.440782 -27.454896 -102.675748 66.958827 -94.052104 1.962293 -2.195853 2.782968 0.100700 -1.000891 0.078599 -3.333473 -56.642474 13.490637 97.150353 82.090078 95.362169 -6.664497 -8.811181 -1.269144 0.368461 0.768916 0.171796
-65.848716 48.549175 15.444909 172.902985 -27.888249 -0.463547 -0.196157 11.787541 1.511124 -0.298459 6.704243 1.275398 -0.331010 8.430571 1.609822 -0.283509 6.743843 1.289873 -0.419291 18.932597 -2.358509 -0.171085 -0.638404 -4.139216 6.560966 5.714332 -4.218573 1.428053 -22.524907 -9.586197 40.765197 -54.993549 -24.239460 11.669397 5.353621 -36.180629 -1.164380 1.634706 -4.537287 3.349695 -25.204657 -1.291559 -67.880562 -36.138130 39.569857 -10.606419 12.432800 34.886766 21.228448 -55.397666 -27.395711 -102.677477 66.970443 -94.050798 1.954213 -2.188318 2.776446 0.111509 -0.991781 0.081102 -3.372947 -56.593043 13.535228 97.217838 82.098635 95.417484 -6.667199 -8.821340 -1.259402 0.374356 0.776135 0.174419
-65.855694 48.544512 15.445094 172.920310 -27.934902 -0.491772 -0.236463 11.755410 1.493375 -0.295430 6.747234 1.290633 -0.335508 8.443694 1.614490 -0.292635 6.746561 1.290438 -0.495127 18.947899 -2.349544 -0.143584 -0.575595 -4.149464 6.614610 5.663930 -4.213549 1.467515 -22.558251 -9.625388 40.615401 -54.895311 -24.094469 11.654525 5.325476 -36.169884 -1.196837 1.568151 -4.556613 3.361870 -25.199645 -1.253105 -67.868462 -36.075180 39.455141 -10.576711 12.444227 34.913597 21.171956 -55.361389 -27.348115 -102.680514 67.012038 -94.056369 1.936222 -2.173641 2.780135 0.115971 -0.979381 0.072259 -3.424262 -56.551465 13.600475 97.305790 82.130172 95.484327 -6.696204 -8.820197 -1.251837 0.404560 0.776155 0.188164
-65.863997 48.540677 15.443992 172.918546 -27.999184 -0.510355 -0.244154 11.777645 1.490478 -0.306607 6.750271 1.291278 -0.319411 8.475387 1.627006 -0.295606 6.747356 1.290633 -0.511059 18.953069 -2.348342 -0.185921 -0.526520 -4.131687 6.640714 5.589655 -4.211313 1.508376 -22.586779 -9.664064 40.452577 -54.790499 -23.939224 11.642669 5.293668 -36.158317 -1.244801 1.495114 -4.569172 3.355134 -25.206725 -1.215785 -67.804724 -36.024033 39.344622 -10.578394 12.445150 34.903254 21.129178 -55.307606 -27.294438 -102.649059 67.080476 -94.034500 1.916741 -2.121218 2.777219 0.081966 -1.003384 0.083018 -3.449155 -56.489269 13.641457 97.395491 82.139226 95.553313 -6.689071 -8.830100 -1.228951 0.399225 0.782217 0.182128
-65.873344 48.535217 15.446679 172.910932 -28.047132 -0.529955 -0.244588 11.779907 1.490539 -0.310967 6.764616 1.297372 -0.342463 8.472519 1.624069 -0.306865 6.750222 1.291360 -0.531343 18.976060 -2.348000 -0.190964 -0.471860 -4.127584 6.702581 5.533502 -4.205722 1.551264 -22.613273 -9.700773 40.289578 -54.684474 -23.771037 11.630994 5.269502 -36.159068 -1.257684 1.442248 -4.580707 3.338590 -25.211476 -1.172333 -67.702900 -35.977116 39.241287 -10.587917 12.438994 34.884087 21.098819 -55.269491 -27.250982 -102.619090 67.134709 -94.007227 1.911442 -2.084950 2.773392 0.059185 -1.004681 0.085440 -3.477513 -56.444472 13.685708 97.446772 82.142039 95.598354 -6.698975 -8.838921 -1.234846 0.412234 0.790497 0.193460
-65.885704 48.529916 15.449758 172.901484 -28.099729 -0.537319 -0.242756 11.796844 1.483945 -0.306283 6.789429 1.308852 -0.373204 8.442822 1.611661 -0.339474 6.732975 1.284786 -0.533737 19.020661 -2.343559 -0.201251 -0.415493 -4.120657 6.778148 5.497889 -4.192005 1.598709 -22.642443 -9.735788 40.124621 -54.565042 -23.605495 11.614512 5.241044 -36.155282 -1.257559 1.411337 -4.587136 3.312679 -25.216466 -1.121043 -67.648312 -35.915289 39.119975 -10.557863 12.451135 34.880981 21.095089 -55.228638 -27.241015 -102.621912 67.183606 -94.007174 1.914706 -2.039657 2.766232 0.044752 -1.018167 0.086266 -3.484994 -56.395177 13.711525 97.501230 82.156241 95.638710 -6.704106 -8.844162 -1.230577 0.424917 0.796156 0.203117
-65.898080 48.524595 15.454186 172.900019 -28.152977 -0.554421 -0.240638 11.838260 1.495510 -0.325860 6.756162 1.292030 -0.411548 8.409293 1.594961 -0.331923 6.756469 1.291712 -0.520090 19.067333 -2.334321 -0.244667 -0.365337 -4.105210 6.838494 5.455572 -4.177053 1.649840 -22.673291 -9.770897 39.952499 -54.410566 -23.437431 11.592936 5.188324 -36.138610 -1.273114 1.375663 -4.593639 3.279231 -25.226560 -1.061279 -67.599418 -35.849523 38.992259 -10.528988 12.463588 34.854519 21.066034 -55.185731 -27.210588 -102.607197 67.230091 -93.991856 1.912679 -2.009373 2.769679 0.033646 -1.016868 0.075020 -3.506849 -56.347528 13.744749 97.538538 82.162976 95.669370 -6.725526 -8.843406 -1.230044 0.443341 0.800853 0.211188
-65.910007 48.519390 15.459946 172.899423 -28.207414 -0.579276 -0.250927 11.844527 1.494261 -0.333561 6.757037 1.291770 -0.420856 8.408087 1.592185 -0.352492 6.741769 1.285369 -0.523849 19.109856 -2.327053 -0.275179 -0.309483 -4.091368 6.899777 5.417741 -4.160243 1.695893 -22.706972 -9.805988 39.776061 -54.297699 -23.247539 11.577741 5.184471 -36.107519 -1.287917 1.346982 -4.602638 3.230718 -25.246225 -0.990547 -67.530091 -35.779284 38.867325 -10.498481 12.480324 34.816286 21.027217 -55.142726 -27.163199 -102.580282 67.271093 -93.964465 1.906941 -1.978778 2.773528 0.041177 -1.003019 0.053983 -3.528663 -56.301025 13.777269 97.575161 82.169926 95.705813 -6.726938 -8.846116 -1.229244 0.450828 0.810090 0.214890
-65.923211 48.513529 15.468423 172.913214 -28.252062 -0.607369 -0.277305 11.813913 1.470626 -0.334962 6.781975 1.305788 -0.404530 8.446919 1.610322 -0.366998 6.726709 1.279311 -0.583096 19.101594 -2.334672 -0.294245 -0.249376 -4.079559 6.928427 5.344589 -4.160011 1.727171 -22.746816 -9.841014 39.616407 -54.165799 -23.045836 11.541493 5.160969 -36.104245 -1.332514 1.281136 -4.626484 3.162754 -25.277110 -0.906678 -67.457221 -35.699738 38.740675 -10.464465 12.506011 34.756654 20.982743 -55.108140 -27.120780 -102.552990 67.299306 -93.938588 1.904535 -1.959159 2.766412 0.024719 -0.999458 0.064160 -3.553189 -56.265322 13.799677 97.562906 82.175392 95.696213 -6.742809 -8.847330 -1.224988 0.468633 0.821478 0.219740
